<svg fill="none" xmlns="http://www.w3.org/2000/svg"  viewBox="0 0 333 333">
  <path d="M139.254 205.865l-16.56-16.56c-20.545-20.545-20.545-53.979 0-74.529l99.368-99.368c20.544-20.545 53.978-20.545 74.528 0l16.56 16.56c20.544 20.545 20.544 53.978 0 74.522l-51.068 51.068-8.279-8.28 51.067-51.062c15.977-15.982 15.977-41.993 0-57.964l-16.56-16.559c-15.981-15.976-41.981-15.976-57.963 0l-99.374 99.356c-15.982 15.982-15.982 41.987 0 57.97l16.559 16.559-8.278 8.287z" fill="#030303" />
  <path d="M36.798 317.971l-16.559-16.559c-20.545-20.545-20.545-53.979 0-74.523l51.062-51.062 8.28 8.28-51.062 51.062c-15.981 15.976-15.981 41.987 0 57.958l16.56 16.559c15.976 15.982 41.987 15.982 57.958 0l99.367-99.361c15.977-15.977 15.977-41.987 0-57.964l-16.56-16.554 8.28-8.279 16.56 16.559c20.545 20.545 20.545 53.978 0 74.523l-99.368 99.361c-20.54 20.557-53.973 20.557-74.518 0z" fill="#030303" />
</svg>