<svg xmlns="http://www.w3.org/2000/svg" fill="none" viewBox="0 0 19 17">
  <rect width="18.133" height="17" fill="#FF610D" rx="5"/>
  <path fill="#fff" d="M10.354 6.019c-.57 0-1.011.214-1.323.644-.313.427-.47 1.022-.47 1.787 0 1.592.598 2.388 1.793 2.388.501 0 1.108-.125 1.821-.376v1.27c-.586.244-1.24.366-1.963.366-1.038 0-1.833-.315-2.383-.943-.55-.631-.825-1.536-.825-2.715 0-.742.135-1.391.405-1.948.27-.56.658-.988 1.163-1.284.507-.3 1.101-.45 1.782-.45.693 0 1.39.168 2.09.504l-.489 1.23a8.085 8.085 0 00-.805-.332 2.404 2.404 0 00-.796-.141z"/>
</svg>