<svg fill="none" xmlns="http://www.w3.org/2000/svg" viewBox="0 0 50 33">
  <path d="M27.5 14.025c0-1.822 1.492-3.3 3.333-3.3H37.5V1.65C37.5.739 36.754 0 35.833 0H1.667C.747 0 0 .739 0 1.65V23.1c0 .911.746 1.65 1.667 1.65H27.5V14.025z" fill="url(#paint0_linear)"/>
  <rect x="41.667" y="8.25" width="8.333" height="12.375" rx="2" fill="url(#paint1_linear)"/>
  <path d="M43.333 22.275c-1.84 0-3.333-1.477-3.333-3.3v-6.6h-9.167c-.92 0-1.666.739-1.666 1.65V31.35c0 .911.746 1.65 1.666 1.65h13.334c.92 0 1.666-.739 1.666-1.65v-9.075h-2.5z" fill="url(#paint2_linear)"/>
  <defs>
    <linearGradient id="paint0_linear" x1="24.065" y1="35.12" x2="40.024" y2="-1.151" gradientUnits="userSpaceOnUse">
      <stop stop-color="#8F70FA"/>
      <stop offset="1" stop-color="#00D093"/>
    </linearGradient>
    <linearGradient id="paint1_linear" x1="44.261" y1="26.111" x2="55.602" y2="21.02" gradientUnits="userSpaceOnUse">
      <stop stop-color="#8F70FA"/>
      <stop offset="1" stop-color="#00D093"/>
    </linearGradient>
    <linearGradient id="paint2_linear" x1="34.753" y1="40.975" x2="52.498" y2="29.503" gradientUnits="userSpaceOnUse">
      <stop offset=".01" stop-color="#8F70FA"/>
      <stop offset=".28" stop-color="#B26DD7"/>
      <stop offset=".77" stop-color="#E9699E"/>
      <stop offset="1" stop-color="#FF6788"/>
    </linearGradient>
  </defs>
</svg>