<svg xmlns="http://www.w3.org/2000/svg" fill="none" viewBox="0 0 84 110">
  <path fill="url(#paint0_linear)" fill-rule="evenodd" d="M49.844 98.484a3.987 3.987 0 00-1.146 2.842c.005.627.158 1.243.447 1.799H13.75C6.156 103.125 0 96.969 0 89.375V13.75C0 6.156 6.156 0 13.75 0H55c7.594 0 13.75 6.156 13.75 13.75v65.862L67.318 81l-5.271-5.27a4.102 4.102 0 00-5.73 0l-6.485 6.484a4.01 4.01 0 000 5.73l5.271 5.27-5.26 5.271zm1.718-58.277a5.73 5.73 0 10-11.458 0 5.73 5.73 0 0011.459 0zm-34.374 0a5.73 5.73 0 1111.458 0 5.73 5.73 0 01-11.459 0zm26.617 29.689c.538.538 1.268.839 2.028.836a2.865 2.865 0 002.029-4.892c-7.453-7.44-19.521-7.44-26.974 0a2.868 2.868 0 104.057 4.056 13.326 13.326 0 0118.86 0z" clip-rule="evenodd"/>
  <path fill="url(#paint1_linear)" fill-rule="evenodd" d="M82.683 84.31l-6.485-6.485a1.146 1.146 0 00-1.616 0l-6.485 6.485a1.146 1.146 0 01-1.616 0l-6.485-6.485a1.146 1.146 0 00-1.616 0l-6.485 6.485a1.146 1.146 0 000 1.616l6.485 6.486a1.146 1.146 0 010 1.615l-6.485 6.486a1.145 1.145 0 000 1.615l6.485 6.486a1.146 1.146 0 001.616 0l6.462-6.474a1.144 1.144 0 011.616 0l6.485 6.485a1.146 1.146 0 001.616 0l6.486-6.485a1.146 1.146 0 000-1.616l-6.486-6.485a1.146 1.146 0 010-1.616l6.508-6.486a1.146 1.146 0 000-1.627z" clip-rule="evenodd"/>
  <defs>
    <linearGradient id="paint0_linear" x1="18.501" x2="112.442" y1="146.022" y2="104.271" gradientUnits="userSpaceOnUse">
      <stop stop-color="#8F70FA"/>
      <stop offset="1" stop-color="#00D093"/>
    </linearGradient>
    <linearGradient id="paint1_linear" x1="51.563" x2="83.027" y1="108.96" y2="108.96" gradientUnits="userSpaceOnUse">
      <stop offset=".01" stop-color="#8F70FA"/>
      <stop offset=".28" stop-color="#B26DD7"/>
      <stop offset=".77" stop-color="#E9699E"/>
      <stop offset="1" stop-color="#FF6788"/>
    </linearGradient>
  </defs>
</svg>