<svg xmlns="http://www.w3.org/2000/svg" fill="none" viewBox="0 0 15 15">
  <path fill="#F12727" fill-rule="evenodd" d="M2.549 2.621a.5.5 0 01.492-.412h.396a.5.5 0 01.5.5v.21l8.257 3.005a.5.5 0 01.3.641l-.082.222a.5.5 0 01-.125.192.5.5 0 01-.25.529l-7.772 4.308a.498.498 0 01-.4.038.5.5 0 01-.428.241h-.396a.5.5 0 01-.5-.5v-7.87a.5.5 0 01-.275-.631l.08-.222a.498.498 0 01.203-.25zm1.388 1.613v6.167l6.716-3.722-6.716-2.445z" clip-rule="evenodd"/>
  <mask id="a" width="11" height="11" x="2" y="2" maskUnits="userSpaceOnUse">
    <path fill="#fff" fill-rule="evenodd" d="M2.549 2.621a.5.5 0 01.492-.412h.396a.5.5 0 01.5.5v.21l8.257 3.005a.5.5 0 01.3.641l-.082.222a.5.5 0 01-.125.192.5.5 0 01-.25.529l-7.772 4.308a.498.498 0 01-.4.038.5.5 0 01-.428.241h-.396a.5.5 0 01-.5-.5v-7.87a.5.5 0 01-.275-.631l.08-.222a.498.498 0 01.203-.25zm1.388 1.613v6.167l6.716-3.722-6.716-2.445z" clip-rule="evenodd"/>
  </mask>
  <g mask="url(#a)">
    <rect width="15" height="15" fill="#CBCFD7" rx="3"/>
  </g>
</svg>