<svg xmlns="http://www.w3.org/2000/svg" fill="none" viewBox="0 0 15 15">
  <path fill="#F5F7F7" fill-rule="evenodd" d="M13.985 5.107c-.005.063.005.126-.013.188a1.033 1.033 0 01-.832.745c-.026.006-.05.014-.077.017l-.007.001c-1.032.104-2.428.153-3.448.164a.904.904 0 01-.559-.159.754.754 0 01-.145-1.086c.12-.15.284-.25.462-.282.551-.098 1.226-.125 1.873-.152-.315-.146-.653-.277-.853-.426a4.945 4.945 0 00-2.94-.957c-2.67 0-4.834 2.08-4.834 4.646s2.165 4.645 4.834 4.645c2.366 0 4.331-1.633 4.75-3.79l1.583.287C13.22 11.823 10.6 14 7.446 14 3.886 14 1 11.227 1 7.806c0-3.42 2.887-6.194 6.446-6.194 1.468 0 2.822.471 3.906 1.266.289.212.502.564.7.92-.144-.673-.314-1.392-.36-1.996a.722.722 0 01.168-.501.828.828 0 011.13-.14.829.829 0 01.301.48c.247.95.55 2.261.706 3.246v.008c.01.07-.006.141-.012.212z" clip-rule="evenodd"/>
  <mask id="a" width="13" height="13" x="1" y="1" maskUnits="userSpaceOnUse">
    <path fill="#fff" fill-rule="evenodd" d="M13.985 5.107c-.005.063.005.126-.013.188a1.033 1.033 0 01-.832.745c-.026.006-.05.014-.077.017l-.007.001c-1.032.104-2.428.153-3.448.164a.904.904 0 01-.559-.159.754.754 0 01-.145-1.086c.12-.15.284-.25.462-.282.551-.098 1.226-.125 1.873-.152-.315-.146-.653-.277-.853-.426a4.945 4.945 0 00-2.94-.957c-2.67 0-4.834 2.08-4.834 4.646s2.165 4.645 4.834 4.645c2.366 0 4.331-1.633 4.75-3.79l1.583.287C13.22 11.823 10.6 14 7.446 14 3.886 14 1 11.227 1 7.806c0-3.42 2.887-6.194 6.446-6.194 1.468 0 2.822.471 3.906 1.266.289.212.502.564.7.92-.144-.673-.314-1.392-.36-1.996a.722.722 0 01.168-.501.828.828 0 011.13-.14.829.829 0 01.301.48c.247.95.55 2.261.706 3.246v.008c.01.07-.006.141-.012.212z" clip-rule="evenodd"/>
  </mask>
  <g mask="url(#a)">
    <rect width="22" height="22" x="-4" y="-4" fill="#373d4d" rx="3"/>
  </g>
</svg>