<svg width="16" height="15" fill="none" xmlns="http://www.w3.org/2000/svg"><path fill-rule="evenodd" clip-rule="evenodd" d="M14.829 5.107c-.006.063.004.126-.013.188a1.031 1.031 0 01-.833.745c-.026.006-.05.014-.076.017l-.008.001c-1.031.104-2.428.153-3.448.164a.904.904 0 01-.558-.159.754.754 0 01-.145-1.086c.12-.15.283-.25.462-.282.55-.098 1.226-.125 1.872-.152-.314-.146-.653-.277-.853-.426a4.945 4.945 0 00-2.94-.957c-2.67 0-4.834 2.08-4.834 4.646S5.62 12.45 8.29 12.45c2.366 0 4.33-1.633 4.75-3.79l1.582.287C14.065 11.823 11.444 14 8.29 14c-3.56 0-6.447-2.773-6.447-6.194 0-3.42 2.887-6.194 6.447-6.194 1.467 0 2.821.471 3.905 1.266.29.212.502.564.7.92-.143-.673-.314-1.392-.36-1.996a.722.722 0 01.168-.501.828.828 0 011.13-.14.828.828 0 01.301.48c.248.95.55 2.261.706 3.246v.008c.01.07-.006.141-.011.212z" fill="#F5F7F7"/><mask id="a" maskUnits="userSpaceOnUse" x="1" y="1" width="14" height="13"><path fill-rule="evenodd" clip-rule="evenodd" d="M14.829 5.107c-.006.063.004.126-.013.188a1.031 1.031 0 01-.833.745c-.026.006-.05.014-.076.017l-.008.001c-1.031.104-2.428.153-3.448.164a.904.904 0 01-.558-.159.754.754 0 01-.145-1.086c.12-.15.283-.25.462-.282.55-.098 1.226-.125 1.872-.152-.314-.146-.653-.277-.853-.426a4.945 4.945 0 00-2.94-.957c-2.67 0-4.834 2.08-4.834 4.646S5.62 12.45 8.29 12.45c2.366 0 4.33-1.633 4.75-3.79l1.582.287C14.065 11.823 11.444 14 8.29 14c-3.56 0-6.447-2.773-6.447-6.194 0-3.42 2.887-6.194 6.447-6.194 1.467 0 2.821.471 3.905 1.266.29.212.502.564.7.92-.143-.673-.314-1.392-.36-1.996a.722.722 0 01.168-.501.828.828 0 011.13-.14.828.828 0 01.301.48c.248.95.55 2.261.706 3.246v.008c.01.07-.006.141-.011.212z" fill="#fff"/></mask><g mask="url(#a)"><rect x="-3.157" y="-4" width="22" height="22" rx="8" fill="#F4F5F9"/><rect x="-2.657" y="-3.5" width="21" height="21" rx="7.5" stroke="#CBCFD7" stroke-opacity=".15"/></g></svg>